<svg width="172" height="40" viewBox="0 0 172 40" fill="none" xmlns="http://www.w3.org/2000/svg">
<rect width="40" height="40" rx="10" fill="#0275D8"/>
<g clip-path="url(#clip0_830_8796)">
<path d="M24.0458 28.7935C23.8326 28.7935 23.6282 28.7088 23.4775 28.5581C23.3269 28.4074 23.2422 28.2031 23.2422 27.9899V26.6581C23.2434 26.4457 23.3285 26.2425 23.4791 26.0927C23.6297 25.943 23.8334 25.859 24.0458 25.859H24.8049C25.1157 25.8597 25.4187 25.7616 25.6701 25.5789C25.9215 25.3961 26.1082 25.1382 26.2033 24.8423L28.099 18.9866C28.1503 18.8246 28.2521 18.6834 28.3895 18.5835C28.5269 18.4836 28.6927 18.4304 28.8626 18.4317H31.695C31.9081 18.4317 32.1125 18.5163 32.2632 18.667C32.4139 18.8177 32.4986 19.0221 32.4986 19.2352V20.5671C32.4986 20.7802 32.4139 20.9846 32.2632 21.1353C32.1125 21.286 31.9081 21.3706 31.695 21.3706C31.3844 21.3705 31.0817 21.4688 30.8305 21.6515C30.5792 21.8342 30.3923 22.0917 30.2966 22.3872L28.4231 28.2386C28.3719 28.4006 28.2701 28.5418 28.1326 28.6417C27.9952 28.7415 27.8294 28.7948 27.6595 28.7935H24.0458Z" fill="url(#paint0_linear_830_8796)"/>
<path d="M30.1067 21.3657C29.5992 21.3638 29.1064 21.1944 28.705 20.8837C28.3036 20.573 28.0161 20.1385 27.887 19.6476C27.8787 19.6116 27.8683 19.576 27.8559 19.5411L26.2044 14.9196C26.1034 14.6329 25.9159 14.3845 25.6678 14.2088C25.4198 14.0331 25.1233 13.9386 24.8193 13.9384H24.0379C23.8256 13.9384 23.6219 13.8543 23.4713 13.7046C23.3207 13.5549 23.2355 13.3517 23.2344 13.1394V11.8075C23.2344 11.5944 23.319 11.3899 23.4697 11.2392C23.6204 11.0885 23.8248 11.0039 24.0379 11.0039H27.6295C27.7994 11.0027 27.9652 11.0558 28.1026 11.1557C28.24 11.2555 28.3418 11.3969 28.3931 11.5589L30.2888 17.4146C30.3845 17.7101 30.5714 17.9676 30.8226 18.1503C31.0739 18.3329 31.3766 18.4313 31.6872 18.4312C31.9003 18.4312 32.1047 18.5158 32.2554 18.6665C32.4061 18.8172 32.4908 19.0217 32.4908 19.2348V20.5667C32.4896 20.779 32.4044 20.9823 32.2538 21.132C32.1033 21.2817 31.8996 21.3657 31.6872 21.3657H30.1067Z" fill="white"/>
<path d="M9.30355 21.3657C9.0912 21.3657 8.88749 21.2817 8.73692 21.132C8.58635 20.9823 8.50117 20.779 8.5 20.5667V19.2348C8.5 19.0217 8.58467 18.8172 8.73536 18.6665C8.88606 18.5158 9.09044 18.4312 9.30355 18.4312C9.61418 18.4313 9.91685 18.3329 10.1681 18.1503C10.4194 17.9676 10.6063 17.7101 10.702 17.4146L12.5977 11.5589C12.6489 11.3969 12.7507 11.2555 12.8881 11.1557C13.0256 11.0558 13.1914 11.0027 13.3613 11.0039H16.9528C17.1659 11.0039 17.3703 11.0885 17.521 11.2392C17.6717 11.3899 17.7564 11.5944 17.7564 11.8075V13.1394C17.7552 13.3517 17.67 13.5549 17.5195 13.7046C17.3689 13.8543 17.1652 13.9384 16.9528 13.9384H16.1715C15.8675 13.9386 15.571 14.0331 15.3229 14.2088C15.0749 14.3845 14.8874 14.6329 14.7863 14.9196L13.1526 19.5455C13.1396 19.5787 13.1292 19.6129 13.1215 19.6476C12.9924 20.1385 12.7049 20.573 12.3035 20.8837C11.9021 21.1944 11.4093 21.3638 10.9018 21.3657H9.30355Z" fill="url(#paint1_linear_830_8796)"/>
<path d="M13.3613 28.794C13.1914 28.7953 13.0256 28.7421 12.8881 28.6422C12.7507 28.5423 12.6489 28.4011 12.5977 28.2391L10.702 22.3833C10.6063 22.0878 10.4194 21.8302 10.1681 21.6476C9.91685 21.4649 9.61418 21.3665 9.30355 21.3666C9.09044 21.3666 8.88606 21.282 8.73536 21.1313C8.58467 20.9806 8.5 20.7763 8.5 20.5632V19.2313C8.5 19.0182 8.58467 18.8137 8.73536 18.663C8.88606 18.5123 9.09044 18.4277 9.30355 18.4277H12.136C12.3027 18.4303 12.4645 18.4846 12.5989 18.5833C12.7333 18.6819 12.8338 18.82 12.8862 18.9782L14.7819 24.8339C14.877 25.1298 15.0638 25.3878 15.3152 25.5705C15.5666 25.7533 15.8696 25.8514 16.1804 25.8506H16.9395C17.1519 25.8506 17.3556 25.9346 17.5061 26.0844C17.6567 26.2341 17.7419 26.4374 17.7431 26.6497V27.9816C17.7431 28.1947 17.6584 28.399 17.5077 28.5497C17.357 28.7004 17.1526 28.7852 16.9395 28.7852L13.3613 28.794Z" fill="white"/>
<path d="M17.7947 23.4541C17.6332 23.4543 17.4757 23.4044 17.3437 23.3114C17.2117 23.2183 17.1118 23.0867 17.0577 22.9346L16.1432 20.3464C16.0877 20.1838 16.0877 20.0073 16.1432 19.8447L17.0755 16.9635C17.1263 16.8058 17.2259 16.6684 17.36 16.571C17.4941 16.4737 17.6556 16.4214 17.8213 16.4219H23.2064C23.3677 16.4224 23.525 16.4725 23.6568 16.5654C23.7887 16.6583 23.8887 16.7895 23.9434 16.9413L24.8579 19.5295C24.9134 19.6922 24.9134 19.8686 24.8579 20.0313L23.9212 22.9169C23.8716 23.0742 23.7728 23.2113 23.6393 23.308C23.5058 23.4047 23.3447 23.456 23.1798 23.4541H17.7947Z" fill="white"/>
</g>
<path d="M62.0752 15.7334C61.5537 15.7334 61.0908 15.8359 60.6865 16.041C60.2881 16.2402 59.9512 16.5303 59.6758 16.9111C59.4062 17.292 59.2012 17.752 59.0605 18.291C58.9199 18.8301 58.8496 19.4365 58.8496 20.1104C58.8496 21.0186 58.9609 21.7949 59.1836 22.4395C59.4121 23.0781 59.7637 23.5674 60.2383 23.9072C60.7129 24.2412 61.3252 24.4082 62.0752 24.4082C62.5967 24.4082 63.1182 24.3496 63.6396 24.2324C64.167 24.1152 64.7383 23.9482 65.3535 23.7314V26.0166C64.7852 26.251 64.2256 26.418 63.6748 26.5176C63.124 26.623 62.5059 26.6758 61.8203 26.6758C60.4961 26.6758 59.4062 26.4033 58.5508 25.8584C57.7012 25.3076 57.0713 24.54 56.6611 23.5557C56.251 22.5654 56.0459 21.4111 56.0459 20.0928C56.0459 19.1201 56.1777 18.2295 56.4414 17.4209C56.7051 16.6123 57.0918 15.9121 57.6016 15.3203C58.1113 14.7285 58.7412 14.2715 59.4912 13.9492C60.2412 13.627 61.1025 13.4658 62.0752 13.4658C62.7139 13.4658 63.3525 13.5479 63.9912 13.7119C64.6357 13.8701 65.251 14.0898 65.8369 14.3711L64.958 16.5859C64.4775 16.3574 63.9941 16.1582 63.5078 15.9883C63.0215 15.8184 62.5439 15.7334 62.0752 15.7334ZM76.8145 21.5693C76.8145 22.3896 76.7031 23.1162 76.4805 23.749C76.2637 24.3818 75.9443 24.918 75.5225 25.3574C75.1064 25.791 74.6025 26.1191 74.0107 26.3418C73.4248 26.5645 72.7627 26.6758 72.0244 26.6758C71.333 26.6758 70.6973 26.5645 70.1172 26.3418C69.543 26.1191 69.042 25.791 68.6143 25.3574C68.1924 24.918 67.8643 24.3818 67.6299 23.749C67.4014 23.1162 67.2871 22.3896 67.2871 21.5693C67.2871 20.4795 67.4805 19.5566 67.8672 18.8008C68.2539 18.0449 68.8047 17.4707 69.5195 17.0781C70.2344 16.6855 71.0869 16.4893 72.0771 16.4893C72.9971 16.4893 73.8115 16.6855 74.5205 17.0781C75.2354 17.4707 75.7949 18.0449 76.1992 18.8008C76.6094 19.5566 76.8145 20.4795 76.8145 21.5693ZM70.0205 21.5693C70.0205 22.2139 70.0908 22.7559 70.2314 23.1953C70.3721 23.6348 70.5918 23.9658 70.8906 24.1885C71.1895 24.4111 71.5791 24.5225 72.0596 24.5225C72.5342 24.5225 72.918 24.4111 73.2109 24.1885C73.5098 23.9658 73.7266 23.6348 73.8613 23.1953C74.002 22.7559 74.0723 22.2139 74.0723 21.5693C74.0723 20.9189 74.002 20.3799 73.8613 19.9521C73.7266 19.5186 73.5098 19.1934 73.2109 18.9766C72.9121 18.7598 72.5225 18.6514 72.042 18.6514C71.333 18.6514 70.8174 18.8945 70.4951 19.3809C70.1787 19.8672 70.0205 20.5967 70.0205 21.5693ZM82.1406 26.6758C81.0449 26.6758 80.1514 26.248 79.46 25.3926C78.7744 24.5312 78.4316 23.2686 78.4316 21.6045C78.4316 19.9229 78.7803 18.6514 79.4775 17.79C80.1748 16.9229 81.0859 16.4893 82.2109 16.4893C82.6797 16.4893 83.0928 16.5537 83.4502 16.6826C83.8076 16.8115 84.1152 16.9844 84.373 17.2012C84.6367 17.418 84.8594 17.6611 85.041 17.9307H85.1289C85.0938 17.7432 85.0498 17.4678 84.9971 17.1045C84.9502 16.7354 84.9268 16.3574 84.9268 15.9707V12.8242H87.6162V26.5H85.5596L85.041 25.2256H84.9268C84.7568 25.4951 84.543 25.7412 84.2852 25.9639C84.0332 26.1807 83.7314 26.3535 83.3799 26.4824C83.0283 26.6113 82.6152 26.6758 82.1406 26.6758ZM83.0811 24.54C83.8135 24.54 84.3291 24.3232 84.6279 23.8896C84.9326 23.4502 85.0938 22.791 85.1113 21.9121V21.6221C85.1113 20.667 84.9648 19.9375 84.6719 19.4336C84.3789 18.9238 83.834 18.6689 83.0371 18.6689C82.4453 18.6689 81.9824 18.9238 81.6484 19.4336C81.3145 19.9434 81.1475 20.6787 81.1475 21.6396C81.1475 22.6006 81.3145 23.3242 81.6484 23.8105C81.9883 24.2969 82.4658 24.54 83.0811 24.54ZM94.4717 16.4893C95.3799 16.4893 96.1621 16.665 96.8184 17.0166C97.4746 17.3623 97.9814 17.8662 98.3389 18.5283C98.6963 19.1904 98.875 19.999 98.875 20.9541V22.2549H92.5381C92.5674 23.0107 92.793 23.6055 93.2148 24.0391C93.6426 24.4668 94.2344 24.6807 94.9902 24.6807C95.6172 24.6807 96.1914 24.6162 96.7129 24.4873C97.2344 24.3584 97.7705 24.165 98.3213 23.9072V25.9814C97.835 26.2217 97.3252 26.3975 96.792 26.5088C96.2646 26.6201 95.623 26.6758 94.8672 26.6758C93.8828 26.6758 93.0098 26.4941 92.248 26.1309C91.4922 25.7676 90.8975 25.2139 90.4639 24.4697C90.0361 23.7256 89.8223 22.7881 89.8223 21.6572C89.8223 20.5088 90.0156 19.5537 90.4023 18.792C90.7949 18.0244 91.3398 17.4502 92.0371 17.0693C92.7344 16.6826 93.5459 16.4893 94.4717 16.4893ZM94.4893 18.3965C93.9678 18.3965 93.5342 18.5635 93.1885 18.8975C92.8486 19.2314 92.6523 19.7559 92.5996 20.4707H96.3613C96.3555 20.0723 96.2822 19.7178 96.1416 19.4072C96.0068 19.0967 95.8018 18.8506 95.5264 18.6689C95.2568 18.4873 94.9111 18.3965 94.4893 18.3965ZM111.399 15.7334C110.878 15.7334 110.415 15.8359 110.011 16.041C109.612 16.2402 109.275 16.5303 109 16.9111C108.73 17.292 108.525 17.752 108.385 18.291C108.244 18.8301 108.174 19.4365 108.174 20.1104C108.174 21.0186 108.285 21.7949 108.508 22.4395C108.736 23.0781 109.088 23.5674 109.562 23.9072C110.037 24.2412 110.649 24.4082 111.399 24.4082C111.921 24.4082 112.442 24.3496 112.964 24.2324C113.491 24.1152 114.062 23.9482 114.678 23.7314V26.0166C114.109 26.251 113.55 26.418 112.999 26.5176C112.448 26.623 111.83 26.6758 111.145 26.6758C109.82 26.6758 108.73 26.4033 107.875 25.8584C107.025 25.3076 106.396 24.54 105.985 23.5557C105.575 22.5654 105.37 21.4111 105.37 20.0928C105.37 19.1201 105.502 18.2295 105.766 17.4209C106.029 16.6123 106.416 15.9121 106.926 15.3203C107.436 14.7285 108.065 14.2715 108.815 13.9492C109.565 13.627 110.427 13.4658 111.399 13.4658C112.038 13.4658 112.677 13.5479 113.315 13.7119C113.96 13.8701 114.575 14.0898 115.161 14.3711L114.282 16.5859C113.802 16.3574 113.318 16.1582 112.832 15.9883C112.346 15.8184 111.868 15.7334 111.399 15.7334ZM126.139 21.5693C126.139 22.3896 126.027 23.1162 125.805 23.749C125.588 24.3818 125.269 24.918 124.847 25.3574C124.431 25.791 123.927 26.1191 123.335 26.3418C122.749 26.5645 122.087 26.6758 121.349 26.6758C120.657 26.6758 120.021 26.5645 119.441 26.3418C118.867 26.1191 118.366 25.791 117.938 25.3574C117.517 24.918 117.188 24.3818 116.954 23.749C116.726 23.1162 116.611 22.3896 116.611 21.5693C116.611 20.4795 116.805 19.5566 117.191 18.8008C117.578 18.0449 118.129 17.4707 118.844 17.0781C119.559 16.6855 120.411 16.4893 121.401 16.4893C122.321 16.4893 123.136 16.6855 123.845 17.0781C124.56 17.4707 125.119 18.0449 125.523 18.8008C125.934 19.5566 126.139 20.4795 126.139 21.5693ZM119.345 21.5693C119.345 22.2139 119.415 22.7559 119.556 23.1953C119.696 23.6348 119.916 23.9658 120.215 24.1885C120.514 24.4111 120.903 24.5225 121.384 24.5225C121.858 24.5225 122.242 24.4111 122.535 24.1885C122.834 23.9658 123.051 23.6348 123.186 23.1953C123.326 22.7559 123.396 22.2139 123.396 21.5693C123.396 20.9189 123.326 20.3799 123.186 19.9521C123.051 19.5186 122.834 19.1934 122.535 18.9766C122.236 18.7598 121.847 18.6514 121.366 18.6514C120.657 18.6514 120.142 18.8945 119.819 19.3809C119.503 19.8672 119.345 20.5967 119.345 21.5693ZM131.034 26.5H128.354V12.8242H131.034V26.5ZM136.536 26.5H133.855V12.8242H136.536V26.5ZM143.383 16.4717C144.701 16.4717 145.712 16.7588 146.415 17.333C147.118 17.9072 147.47 18.7803 147.47 19.9521V26.5H145.598L145.079 25.1641H145.009C144.728 25.5156 144.44 25.8027 144.147 26.0254C143.854 26.248 143.518 26.4121 143.137 26.5176C142.756 26.623 142.293 26.6758 141.748 26.6758C141.168 26.6758 140.646 26.5645 140.184 26.3418C139.727 26.1191 139.366 25.7793 139.103 25.3223C138.839 24.8594 138.707 24.2734 138.707 23.5645C138.707 22.5215 139.073 21.7539 139.806 21.2617C140.538 20.7637 141.637 20.4883 143.102 20.4355L144.807 20.3828V19.9521C144.807 19.4365 144.672 19.0586 144.402 18.8184C144.133 18.5781 143.758 18.458 143.277 18.458C142.803 18.458 142.337 18.5254 141.88 18.6602C141.423 18.7949 140.966 18.9648 140.509 19.1699L139.621 17.3594C140.143 17.084 140.726 16.8672 141.37 16.709C142.021 16.5508 142.691 16.4717 143.383 16.4717ZM144.807 21.9473L143.77 21.9824C142.902 22.0059 142.299 22.1611 141.959 22.4482C141.625 22.7354 141.458 23.1133 141.458 23.582C141.458 23.9922 141.578 24.2852 141.818 24.4609C142.059 24.6309 142.372 24.7158 142.759 24.7158C143.333 24.7158 143.816 24.5459 144.209 24.2061C144.607 23.8662 144.807 23.3828 144.807 22.7559V21.9473ZM152.919 12.8242V16.0059C152.919 16.375 152.907 16.7412 152.884 17.1045C152.866 17.4678 152.843 17.749 152.813 17.9482H152.919C153.177 17.5439 153.528 17.2012 153.974 16.9199C154.419 16.6328 154.996 16.4893 155.705 16.4893C156.807 16.4893 157.7 16.9199 158.386 17.7812C159.071 18.6426 159.414 19.9053 159.414 21.5693C159.414 22.6885 159.256 23.6289 158.939 24.3906C158.623 25.1465 158.181 25.7178 157.612 26.1045C157.044 26.4854 156.385 26.6758 155.635 26.6758C154.914 26.6758 154.346 26.5469 153.93 26.2891C153.514 26.0312 153.177 25.7412 152.919 25.4189H152.734L152.286 26.5H150.238V12.8242H152.919ZM154.844 18.6338C154.375 18.6338 154.003 18.7305 153.728 18.9238C153.452 19.1172 153.25 19.4072 153.121 19.7939C152.998 20.1807 152.931 20.6699 152.919 21.2617V21.5518C152.919 22.5068 153.06 23.2393 153.341 23.749C153.622 24.2529 154.135 24.5049 154.879 24.5049C155.43 24.5049 155.866 24.25 156.188 23.7402C156.517 23.2305 156.681 22.4951 156.681 21.5342C156.681 20.5732 156.517 19.8496 156.188 19.3633C155.86 18.877 155.412 18.6338 154.844 18.6338ZM170.559 21.5693C170.559 22.3896 170.447 23.1162 170.225 23.749C170.008 24.3818 169.688 24.918 169.267 25.3574C168.851 25.791 168.347 26.1191 167.755 26.3418C167.169 26.5645 166.507 26.6758 165.769 26.6758C165.077 26.6758 164.441 26.5645 163.861 26.3418C163.287 26.1191 162.786 25.791 162.358 25.3574C161.937 24.918 161.608 24.3818 161.374 23.749C161.146 23.1162 161.031 22.3896 161.031 21.5693C161.031 20.4795 161.225 19.5566 161.611 18.8008C161.998 18.0449 162.549 17.4707 163.264 17.0781C163.979 16.6855 164.831 16.4893 165.821 16.4893C166.741 16.4893 167.556 16.6855 168.265 17.0781C168.979 17.4707 169.539 18.0449 169.943 18.8008C170.354 19.5566 170.559 20.4795 170.559 21.5693ZM163.765 21.5693C163.765 22.2139 163.835 22.7559 163.976 23.1953C164.116 23.6348 164.336 23.9658 164.635 24.1885C164.934 24.4111 165.323 24.5225 165.804 24.5225C166.278 24.5225 166.662 24.4111 166.955 24.1885C167.254 23.9658 167.471 23.6348 167.605 23.1953C167.746 22.7559 167.816 22.2139 167.816 21.5693C167.816 20.9189 167.746 20.3799 167.605 19.9521C167.471 19.5186 167.254 19.1934 166.955 18.9766C166.656 18.7598 166.267 18.6514 165.786 18.6514C165.077 18.6514 164.562 18.8945 164.239 19.3809C163.923 19.8672 163.765 20.5967 163.765 21.5693Z" fill="#0275D8"/>
<defs>
<linearGradient id="paint0_linear_830_8796" x1="27.8682" y1="28.7269" x2="27.8682" y2="18.3873" gradientUnits="userSpaceOnUse">
<stop stop-color="white"/>
<stop offset="0.38" stop-color="#FDFDFD"/>
<stop offset="0.52" stop-color="#F6F6F6"/>
<stop offset="0.62" stop-color="#EBEBEB"/>
<stop offset="0.7" stop-color="#DADADA"/>
<stop offset="0.77" stop-color="#C5C4C4"/>
<stop offset="0.83" stop-color="#AAA8A9"/>
<stop offset="0.88" stop-color="#8A8888"/>
<stop offset="0.93" stop-color="#656263"/>
<stop offset="0.98" stop-color="#3D393A"/>
<stop offset="1" stop-color="#231F20"/>
</linearGradient>
<linearGradient id="paint1_linear_830_8796" x1="13.126" y1="11.1904" x2="13.126" y2="22.0804" gradientUnits="userSpaceOnUse">
<stop stop-color="white"/>
<stop offset="0.38" stop-color="#FDFDFD"/>
<stop offset="0.51" stop-color="#F6F6F7"/>
<stop offset="0.61" stop-color="#EBEBEB"/>
<stop offset="0.69" stop-color="#DADADB"/>
<stop offset="0.75" stop-color="#C4C4C5"/>
<stop offset="0.81" stop-color="#A8A9AB"/>
<stop offset="0.87" stop-color="#88898B"/>
<stop offset="0.92" stop-color="#626466"/>
<stop offset="0.96" stop-color="#393C3E"/>
<stop offset="1" stop-color="#0C0F12"/>
</linearGradient>
<clipPath id="clip0_830_8796">
<rect width="24" height="17.7936" fill="white" transform="translate(8.5 11)"/>
</clipPath>
</defs>
</svg>
